<svg width="40.000000" height="40.000000" viewBox="0 0 40 40" fill="none" xmlns="http://www.w3.org/2000/svg" xmlns:xlink="http://www.w3.org/1999/xlink">
	<desc>
			Created with Pixso.
	</desc>
	<defs>
		<clipPath id="clip118_3314">
			<rect width="40.000000" height="40.000000" fill="white" fill-opacity="0"/>
		</clipPath>
	</defs>
	<rect width="40.000000" height="40.000000" fill="#FFFFFF" fill-opacity="0"/>
	<g clip-path="url(#clip118_3314)">
		<path d="M7.5 3.75L7.5 36.25L32.5 36.25L32.5 12L32.12 11.62L24.62 4.12L24.25 3.75L7.5 3.75ZM10 6.25L22.5 6.25L22.5 13.75L30 13.75L30 33.75L10 33.75L10 6.25ZM25 8L28.25 11.25L25 11.25L25 8ZM12.5 11.25L12.5 13.75L20 13.75L20 11.25L12.5 11.25ZM12.5 16.25L12.5 18.75L27.5 18.75L27.5 16.25L12.5 16.25ZM16.87 20C15.75 20 14.87 20.75 14.37 21.62C13.87 22.5 13.75 23.62 13.75 24.87C13.75 25.62 14 26.37 14.12 27.12C13.62 27.25 13.12 27.62 12.5 27.62L12.5 30.12C13.37 30.12 14.25 30 15 29.75C15.12 30 15.12 30.12 15.37 30.37C15.87 30.87 16.62 31.25 17.5 31.25C19.5 31.25 20.75 29.87 21.62 28.87C21.75 28.62 21.87 28.5 22 28.37C22 28.5 22 28.62 22.12 28.75C22.25 29 22.37 29.25 22.62 29.5C22.87 29.75 23.37 30 23.75 30C24.5 30 25 29.5 25.25 29.25C25.5 29 25.75 28.62 26 28.37C26.5 27.87 26.87 27.5 27.37 27.5L27.37 25C25.87 25 24.75 25.87 24.12 26.62C24.12 26.5 24.12 26.37 24 26.25C23.87 26 23.75 25.75 23.5 25.37C23.25 25 22.87 25 22.5 25C21.5 25 21.12 25.62 20.75 26C20.37 26.37 20 26.87 19.75 27.37C19 28.25 18.5 28.75 17.5 28.75C17.37 28.75 17.37 28.62 17.25 28.62C17.37 28.62 17.37 28.5 17.5 28.5C18.87 27.37 20 25.87 20 23.87C20 22.87 19.75 22 19.25 21.25C18.75 20.5 17.87 20 16.87 20ZM16.75 22.5C17.12 22.5 17.12 22.5 17.25 22.75C17.37 23 17.5 23.37 17.5 24C17.5 24.75 17.12 25.5 16.5 26.12C16.5 25.75 16.25 25.25 16.25 25C16.25 24 16.37 23.25 16.62 22.87C16.75 22.62 16.75 22.5 16.75 22.5Z" fill="#6C6C6C" fill-opacity="1.000000" fill-rule="nonzero"/>
	</g>
</svg>
