<svg width="50.000000" height="50.000000" viewBox="0 0 50 50" fill="none" xmlns="http://www.w3.org/2000/svg" xmlns:xlink="http://www.w3.org/1999/xlink">
	<desc>
			Created with Pixso.
	</desc>
	<defs>
		<clipPath id="clip13_1368">
			<rect id="assignment" width="50.000000" height="50.000000" fill="white" fill-opacity="0"/>
		</clipPath>
	</defs>
	<g clip-path="url(#clip13_1368)">
		<path id="Vector" d="M14.58 31.25L29.16 31.25L29.16 35.41L14.58 35.41L14.58 31.25ZM14.58 22.91L35.41 22.91L35.41 27.08L14.58 27.08L14.58 22.91ZM14.58 14.58L35.41 14.58L35.41 18.75L14.58 18.75L14.58 14.58ZM39.58 6.25L30.87 6.25C30 3.83 27.7 2.08 25 2.08C22.29 2.08 20 3.83 19.12 6.25L10.41 6.25C10.12 6.25 9.85 6.27 9.58 6.33C8.77 6.5 8.04 6.91 7.47 7.47C7.1 7.85 6.79 8.31 6.58 8.81C6.37 9.29 6.25 9.83 6.25 10.41L6.25 39.58C6.25 40.14 6.37 40.7 6.58 41.2C6.79 41.7 7.1 42.14 7.47 42.54C8.04 43.1 8.77 43.52 9.58 43.68C9.85 43.72 10.12 43.75 10.41 43.75L39.58 43.75C41.87 43.75 43.75 41.87 43.75 39.58L43.75 10.41C43.75 8.12 41.87 6.25 39.58 6.25ZM25 5.72C25.85 5.72 26.56 6.43 26.56 7.29C26.56 8.14 25.85 8.85 25 8.85C24.14 8.85 23.43 8.14 23.43 7.29C23.43 6.43 24.14 5.72 25 5.72ZM39.58 39.58L10.41 39.58L10.41 10.41L39.58 10.41L39.58 39.58Z" fill="#FFFFFF" fill-opacity="1.000000" fill-rule="nonzero"/>
	</g>
</svg>
