<svg width="50.000000" height="50.000000" viewBox="0 0 50 50" fill="none" xmlns="http://www.w3.org/2000/svg" xmlns:xlink="http://www.w3.org/1999/xlink">
	<desc>
			Created with Pixso.
	</desc>
	<defs>
		<clipPath id="clip13_1447">
			<rect id="local_shipping" width="50.000000" height="50.000000" fill="white" fill-opacity="0"/>
		</clipPath>
	</defs>
	<g clip-path="url(#clip13_1447)">
		<path id="Vector" d="M41.66 16.66L35.41 16.66L35.41 8.33L6.25 8.33C3.95 8.33 2.08 10.2 2.08 12.5L2.08 35.41L6.25 35.41C6.25 38.87 9.04 41.66 12.5 41.66C15.95 41.66 18.75 38.87 18.75 35.41L31.25 35.41C31.25 38.87 34.04 41.66 37.5 41.66C40.95 41.66 43.75 38.87 43.75 35.41L47.91 35.41L47.91 25L41.66 16.66ZM40.62 19.79L44.7 25L35.41 25L35.41 19.79L40.62 19.79ZM12.5 37.5C11.35 37.5 10.41 36.56 10.41 35.41C10.41 34.27 11.35 33.33 12.5 33.33C13.64 33.33 14.58 34.27 14.58 35.41C14.58 36.56 13.64 37.5 12.5 37.5ZM17.12 31.25C15.97 29.97 14.35 29.16 12.5 29.16C10.64 29.16 9.02 29.97 7.87 31.25L6.25 31.25L6.25 12.5L31.25 12.5L31.25 31.25L17.12 31.25ZM37.5 37.5C36.35 37.5 35.41 36.56 35.41 35.41C35.41 34.27 36.35 33.33 37.5 33.33C38.64 33.33 39.58 34.27 39.58 35.41C39.58 36.56 38.64 37.5 37.5 37.5Z" fill="#FFFFFF" fill-opacity="1.000000" fill-rule="nonzero"/>
	</g>
</svg>
