<svg width="55.000000" height="55.000000" viewBox="0 0 55 55" fill="none" xmlns="http://www.w3.org/2000/svg" xmlns:xlink="http://www.w3.org/1999/xlink">
	<desc>
			Created with Pixso.
	</desc>
	<defs>
		<clipPath id="clip118_3254">
			<rect id="invoice 1" width="55.000000" height="55.000000" fill="white" fill-opacity="0"/>
		</clipPath>
	</defs>
	<rect id="invoice 1" width="55.000000" height="55.000000" fill="#FFFFFF" fill-opacity="0"/>
	<g clip-path="url(#clip118_3254)">
		<path id="Vector" d="M54.17 43.21C51.18 41.4 48.5 38.89 46.19 35.74C45.62 34.98 44.55 34.81 43.78 35.38C43.02 35.94 42.85 37.01 43.42 37.78C45.17 40.17 47.13 42.23 49.27 43.96L20.9 51.42C9.03 43.72 4.22 25.73 3.49 11.62L32.74 3.92C32.9 6.39 33.3 10.73 34.36 15.82C34.55 16.75 35.46 17.35 36.39 17.15C37.32 16.96 37.92 16.05 37.73 15.12C36.17 7.66 36.09 1.75 36.09 1.7C36.08 0.58 35.01 -0.23 33.93 0.05L1.28 8.64C0.52 8.85 -0.01 9.54 0 10.32C0 10.66 0.11 18.56 2.54 27.99C5.24 38.49 10.39 49.07 19.73 54.74C20 54.9 20.31 54.99 20.62 54.99C20.97 54.99 18.77 55.53 53.71 46.34C55.17 45.95 55.46 43.99 54.17 43.21Z" fill="#FFFFFF" fill-opacity="1.000000" fill-rule="nonzero"/>
		<path id="Vector" d="M17.18 39.52C17.58 39.52 16.78 39.75 28.04 36C28.94 35.7 29.43 34.72 29.13 33.82C28.83 32.92 27.85 32.44 26.95 32.74L16.64 36.17C15.74 36.47 15.25 37.45 15.55 38.35C15.79 39.07 16.46 39.52 17.18 39.52Z" fill="#FFFFFF" fill-opacity="1.000000" fill-rule="nonzero"/>
		<path id="Vector" d="M32.65 37.24C31.3 37.04 29.64 37.1 28.21 38.13C25.58 40.02 26.13 42.96 22.34 42.96C21.39 42.96 20.62 43.73 20.62 44.68C20.62 45.63 21.39 46.4 22.34 46.4C28.01 46.4 28.78 41.95 30.22 40.92C31.07 40.31 32.73 40.66 33.65 41.08C34.09 41.29 34.62 41.3 35.09 41.08C35.8 40.76 39.62 38.07 42.79 33.97C47.48 27.89 49.32 20.8 48.1 13.46C47.91 12.32 46.67 11.69 45.63 12.21C36.63 16.69 32.96 27.14 32.65 37.24ZM45 16.58C45.45 24.3 41.87 31.04 36.15 36.01C36.63 28.74 39.02 20.82 45 16.58Z" fill="#FFFFFF" fill-opacity="1.000000" fill-rule="nonzero"/>
		<path id="Vector" d="M18.46 23.77C20.01 23.36 21.31 22.36 22.11 20.97C24.8 16.31 20.47 10.78 15.35 12.15L9.54 13.71C8.62 13.96 8.07 14.9 8.32 15.82C9.26 19.32 9.27 19.37 12.77 32.42C13.01 33.33 13.95 33.88 14.87 33.63C15.79 33.39 16.33 32.44 16.09 31.53L15.64 29.87L18.96 28.98C19.88 28.73 20.42 27.79 20.18 26.87C19.93 25.96 18.99 25.41 18.07 25.66L14.75 26.55L14.31 24.89C18.64 23.72 18.45 23.77 18.46 23.77ZM16.24 15.47C17.61 15.11 19.02 15.92 19.39 17.3C19.76 18.67 18.95 20.09 17.57 20.45C17.58 20.45 17.51 20.47 13.42 21.57L12.09 16.59L16.24 15.47Z" fill="#FFFFFF" fill-opacity="1.000000" fill-rule="nonzero"/>
	</g>
</svg>
