<svg width="20.000000" height="20.000000" viewBox="0 0 20 20" fill="none" xmlns="http://www.w3.org/2000/svg" xmlns:xlink="http://www.w3.org/1999/xlink">
	<desc>
			Created with Pixso.
	</desc>
	<defs>
		<clipPath id="clip118_3292">
			<rect id="Icon.Map" width="20.000000" height="20.000000" fill="white" fill-opacity="0"/>
		</clipPath>
	</defs>
	<rect id="Icon.Map" width="20.000000" height="20.000000" fill="#FFFFFF" fill-opacity="0"/>
	<g clip-path="url(#clip118_3292)">
		<path id="Vector" d="M10 11.66C11.83 11.66 13.33 10.17 13.33 8.33C13.33 6.49 11.83 5 10 5C8.16 5 6.66 6.49 6.66 8.33C6.66 10.17 8.16 11.66 10 11.66ZM10 6.66C10.91 6.66 11.66 7.41 11.66 8.33C11.66 9.25 10.91 10 10 10C9.08 10 8.33 9.25 8.33 8.33C8.33 7.41 9.08 6.66 10 6.66Z" fill="#73726E" fill-opacity="1.000000" fill-rule="nonzero"/>
		<path id="Vector" d="M9.51 18.17C9.65 18.27 9.82 18.33 10 18.33C10.17 18.33 10.34 18.27 10.48 18.17C10.73 17.99 16.69 13.7 16.66 8.33C16.66 4.65 13.67 1.66 10 1.66C6.32 1.66 3.33 4.65 3.33 8.32C3.3 13.7 9.26 17.99 9.51 18.17ZM10 3.33C12.75 3.33 15 5.57 15 8.33C15.01 12.03 11.34 15.35 10 16.44C8.65 15.35 4.98 12.03 5 8.33C5 5.57 7.24 3.33 10 3.33Z" fill="#73726E" fill-opacity="1.000000" fill-rule="nonzero"/>
	</g>
</svg>
