<svg width="40.000000" height="40.000000" viewBox="0 0 40 40" fill="none" xmlns="http://www.w3.org/2000/svg" xmlns:xlink="http://www.w3.org/1999/xlink">
	<desc>
			Created with Pixso.
	</desc>
	<defs>
		<clipPath id="clip118_3318">
			<rect width="40.000000" height="40.000000" fill="white" fill-opacity="0"/>
		</clipPath>
	</defs>
	<rect width="40.000000" height="40.000000" fill="#FFFFFF" fill-opacity="0"/>
	<g clip-path="url(#clip118_3318)">
		<path d="M7.5 3.75L7.5 36.25L32.5 36.25L32.5 11.99L32.14 11.6L24.64 4.1L24.25 3.75L7.5 3.75ZM10 6.25L22.5 6.25L22.5 13.75L30 13.75L30 33.75L10 33.75L10 6.25ZM25 8.04L28.2 11.25L25 11.25L25 8.04ZM13.75 16.25L13.75 18.75L26.25 18.75L26.25 16.25L13.75 16.25ZM13.75 21.25L13.75 23.75L26.25 23.75L26.25 21.25L13.75 21.25ZM13.75 26.25L13.75 28.75L26.25 28.75L26.25 26.25L13.75 26.25Z" fill="#6C6C6C" fill-opacity="1.000000" fill-rule="nonzero"/>
	</g>
</svg>
