<svg width="43.000000" height="43.000000" viewBox="0 0 43 43" fill="none" xmlns="http://www.w3.org/2000/svg" xmlns:xlink="http://www.w3.org/1999/xlink">
	<desc>
			Created with Pixso.
	</desc>
	<defs>
		<clipPath id="clip118_3305">
			<rect id="каска 1" width="43.000000" height="43.000000" fill="white" fill-opacity="0"/>
		</clipPath>
	</defs>
	<rect id="каска 1" width="43.000000" height="43.000000" fill="#FFFFFF" fill-opacity="0"/>
	<g clip-path="url(#clip118_3305)">
		<path id="Vector" d="M33.77 37.24L34.96 37.78C35.4 38 35.71 38.16 36.09 38.38C36.89 38.87 37.43 39.33 38.1 39.92L33.77 39.92L33.77 37.24ZM9.21 37.24L9.21 39.92L4.89 39.92C5.97 38.97 5.75 39.14 6.84 38.42C7.72 37.85 8.37 37.63 9.2 37.24L9.21 37.24ZM12.18 36.27C12.63 36.24 13.28 36.01 13.7 35.88C15.72 35.3 14.97 35.31 18.23 36.95C22.07 38.87 20.91 38.87 24.76 36.95C28.05 35.3 27.26 35.3 29.29 35.87C29.71 35.99 30.4 36.24 30.8 36.27C30.59 36.65 30.71 39.3 30.71 39.92L12.28 39.92L12.28 36.56C12.28 36.19 12.32 36.52 12.19 36.27L12.18 36.27ZM16.89 31.28C17.62 31.34 20.43 33.21 25.11 31.63C25.51 31.5 25.72 31.32 26.1 31.28L26.1 32.82C25.57 33.1 21.71 35.08 21.5 35.08C21.28 35.08 17.42 33.1 16.89 32.82L16.89 31.28ZM13.82 21.02L13.82 19.97L29.18 19.97C29.18 22.82 28.88 24.95 27.05 26.75C26.28 27.51 25.77 27.91 24.76 28.41C20.1 30.72 13.82 27.58 13.82 21.02ZM9.22 16.12C9.22 15.74 9.65 15.35 10.08 15.35L31.38 15.35C31.84 15.35 33.21 15.38 33.48 15.56C34.09 15.99 33.66 16.89 32.92 16.89L10.08 16.89C9.65 16.89 9.22 16.5 9.22 16.12ZM16.89 7.29C16.89 7.82 16.82 9.23 16.93 9.65C17.38 11.36 19.97 10.9 19.97 9.4L19.97 3.06L23.03 3.06L23.03 9.4C23.03 10.9 25.62 11.36 26.07 9.65C26.18 9.23 26.11 7.82 26.11 7.29C27.52 7.62 29.31 9.46 30.22 10.66C30.63 11.2 30.87 11.66 31.19 12.28L11.81 12.28C12.62 10.75 13.78 9.22 15.23 8.21C15.65 7.91 16.38 7.41 16.9 7.29L16.89 7.29ZM16.89 3.93C16.24 3.98 14.64 4.91 14.01 5.28C11.77 6.62 9.89 8.98 8.82 11.41C8.71 11.67 8.55 12.22 8.41 12.44C8.17 12.87 8.19 12.61 7.65 13.03C4.61 15.44 6.54 19.96 9.68 19.96L10.74 19.96C10.74 22.9 10.7 24.55 12.35 27.17C12.58 27.55 12.78 27.85 13.06 28.18C13.21 28.36 13.29 28.49 13.45 28.66C13.67 28.89 13.74 28.85 13.8 29.17C13.9 29.77 13.8 31.86 13.8 32.62C13.42 32.65 13.03 32.81 12.73 32.89L9.45 33.83C7.89 34.35 6.81 34.78 5.51 35.56C4.63 36.09 3.87 36.61 3.13 37.3C2.06 38.3 -0.01 40.09 -0.01 41.65C-0.01 42.25 0.73 43 1.33 43L41.64 43C42.33 43 42.99 42.33 42.99 41.26C42.99 40.6 41.79 39.31 41.33 38.79C38.36 35.45 35.76 34.49 31.43 33.23L29.16 32.62C29.16 31.68 29.07 30.13 29.16 29.26C29.21 28.83 29.32 28.91 29.86 28.24C30.16 27.87 30.32 27.62 30.58 27.23C32.25 24.76 32.23 22.78 32.23 19.96L33.28 19.96C35.05 19.96 36.83 18.18 36.83 16.4C36.83 13.25 34.95 13.13 34.56 12.44L33.73 10.49C32.29 7.82 30.62 6.25 28.11 4.78C27.71 4.56 26.61 3.97 26.08 3.92C26.08 2.54 26.1 2.01 25.47 1.18C25.03 0.6 24.19 0 23.21 0L19.76 0C18.79 0 17.97 0.58 17.53 1.13C16.86 1.97 16.88 2.49 16.88 3.93L16.89 3.93Z" fill="#FFFFFF" fill-opacity="1.000000" fill-rule="evenodd"/>
	</g>
</svg>
